<svg version="1.1" id="Layer_1" xmlns="http://www.w3.org/2000/svg" xmlns:xlink="http://www.w3.org/1999/xlink" x="0px" y="0px"
	 width="100%" viewBox="0 0 548 194" enable-background="new 0 0 548 194" xml:space="preserve">
<path fill="#FEFEFE" opacity="1.000000" stroke="none" 
	d="
M522.000000,195.000000 
	C348.000031,195.000000 174.500061,195.000000 1.000070,195.000000 
	C1.000046,130.333374 1.000046,65.666756 1.000023,1.000096 
	C183.666580,1.000064 366.333160,1.000064 548.999817,1.000032 
	C548.999878,65.666580 548.999878,130.333160 548.999939,194.999878 
	C540.166687,195.000000 531.333313,195.000000 522.000000,195.000000 
M116.148834,116.502991 
	C116.148834,122.282585 116.148834,128.062180 116.148834,133.853363 
	C118.956589,133.853363 121.321426,133.853363 123.799797,133.853363 
	C123.799797,124.453865 123.800903,115.460304 123.799454,106.466743 
	C123.798309,99.420464 129.007172,93.918556 135.726578,93.872368 
	C141.990341,93.829315 145.014420,97.662445 145.063873,105.917046 
	C145.119537,115.211731 145.076691,124.507019 145.076691,133.881805 
	C147.805283,133.881805 150.183380,133.881805 152.097549,133.881805 
	C152.097549,122.357109 152.818954,111.151680 151.881943,100.086685 
	C151.049194,90.252777 142.489273,84.334618 133.405640,86.700706 
	C129.033386,87.839569 125.217682,91.115112 120.949883,93.536613 
	C118.408134,89.156120 113.793373,86.406715 107.671494,86.225349 
	C101.663177,86.047340 97.175552,89.046806 93.224495,94.173080 
	C93.092018,91.286766 93.009506,89.488953 92.920387,87.547379 
	C90.454659,87.547379 88.227295,87.547379 85.647118,87.547379 
	C85.647118,95.467125 85.647125,103.106766 85.647125,110.746399 
	C85.647125,118.511459 85.647118,126.276512 85.647118,133.925842 
	C88.474869,133.925842 90.706108,133.925842 93.091187,133.925842 
	C93.091187,129.932831 93.090958,126.272957 93.091255,122.613083 
	C93.091553,118.947762 92.978935,115.278122 93.118034,111.618065 
	C93.361389,105.214775 95.069366,99.384033 100.796753,95.658806 
	C107.883781,91.049240 115.344460,94.636711 116.004326,103.017563 
	C116.330376,107.158752 116.117737,111.342354 116.148834,116.502991 
M324.799500,115.510818 
	C324.799622,112.511986 324.801392,109.513153 324.799500,106.514320 
	C324.795044,99.431335 329.952911,93.941536 336.679077,93.872246 
	C342.967865,93.807442 346.011871,97.628990 346.063232,105.869614 
	C346.121185,115.171906 346.076599,124.474831 346.076599,133.905136 
	C348.771820,133.905136 351.161682,133.905136 353.105377,133.905136 
	C353.105377,122.403755 353.822876,111.198944 352.891174,100.132996 
	C352.061859,90.283371 343.535492,84.348709 334.451324,86.691521 
	C330.078735,87.819214 326.258484,91.088593 321.911774,93.544258 
	C319.482361,89.089241 314.796143,86.438354 308.718140,86.237053 
	C302.697906,86.037651 298.141785,88.970840 294.229126,94.272720 
	C294.097473,91.327034 294.016815,89.522766 293.927612,87.526962 
	C291.489746,87.526962 289.257904,87.526962 286.925110,87.526962 
	C286.925110,103.193298 286.925110,118.594818 286.925110,133.948608 
	C289.448517,133.948608 291.686646,133.948608 294.091949,133.948608 
	C294.091949,126.479950 293.801758,119.305099 294.211090,112.170380 
	C294.424347,108.453690 295.332367,104.560989 296.879639,101.184540 
	C299.563507,95.327972 305.561859,92.645439 310.843872,94.135521 
	C314.908234,95.282112 317.106323,99.323448 317.136627,105.963829 
	C317.179016,115.247337 317.147339,124.531189 317.147339,133.874390 
	C319.927063,133.874390 322.301300,133.874390 324.799500,133.874390 
	C324.799500,127.828537 324.799500,122.167137 324.799500,115.510818 
M418.697815,87.569298 
	C418.121643,89.019020 417.057983,90.464386 417.044952,91.919144 
	C416.918976,106.006615 416.969330,120.095665 416.969330,134.233398 
	C419.746429,134.233398 421.974518,134.233398 424.507324,134.233398 
	C424.507324,126.779251 424.154755,119.623093 424.640991,112.524406 
	C424.927795,108.337700 425.918304,103.942978 427.717438,100.179680 
	C430.069244,95.260353 433.667328,94.358635 438.945190,95.916000 
	C439.578278,96.102806 440.319397,96.180389 440.957336,96.049614 
	C443.874390,95.451637 446.772461,94.761345 450.195557,93.986992 
	C450.195557,108.143768 450.195557,121.070259 450.195557,134.179901 
	C452.900024,134.179901 455.273743,134.179901 457.947479,134.179901 
	C457.947479,120.866791 457.947479,107.927170 457.947479,94.523163 
	C461.802307,94.523163 465.373779,94.523163 469.013092,94.523163 
	C469.013092,91.980515 469.013092,89.912415 469.013092,87.361115 
	C465.173981,87.361115 461.613251,87.361115 457.663086,87.361115 
	C457.663086,81.127884 457.663086,75.373573 457.663086,69.528152 
	C454.996033,69.528152 452.763763,69.528152 449.959290,69.528152 
	C449.959290,75.678062 449.959290,81.550613 449.959290,87.271965 
	C441.147308,88.896164 430.963898,82.130272 424.964844,94.856094 
	C424.604828,91.401054 424.421692,89.643784 424.204437,87.558746 
	C422.479584,87.558746 421.013580,87.558746 418.697815,87.569298 
M399.389313,131.365738 
	C399.879089,137.792786 404.239014,133.179367 406.812500,134.533371 
	C406.812500,118.652824 406.812500,103.371559 406.812500,87.964310 
	C404.278473,87.964310 401.921265,87.964310 399.576691,87.964310 
	C399.409882,90.256638 399.271393,92.159653 399.117767,94.271080 
	C386.194702,84.422585 374.745300,84.169815 365.944153,93.306549 
	C357.120331,102.466789 356.468414,117.265755 364.506683,127.133522 
	C367.980347,131.397736 372.295410,134.261383 377.852142,135.232498 
	C386.269287,136.703506 393.026855,133.525986 399.156036,127.324883 
	C399.270081,128.901535 399.329224,129.719284 399.389313,131.365738 
M223.499817,113.959076 
	C229.954605,113.959076 236.409393,113.959076 242.803696,113.959076 
	C244.283768,99.685547 235.366821,88.348564 221.593506,86.441238 
	C208.910522,84.684906 196.748337,93.813286 194.468582,106.799995 
	C192.245560,119.463425 200.452316,131.698349 213.130035,134.621170 
	C224.821762,137.316696 237.582504,130.894592 240.153091,121.022438 
	C235.901184,120.259941 232.507019,121.113022 228.873306,124.105202 
	C219.083954,132.166229 204.077133,126.249138 202.499146,113.959076 
	C209.180939,113.959076 215.840561,113.959076 223.499817,113.959076 
M251.456161,110.136536 
	C254.080276,111.156693 256.682892,112.237198 259.333771,113.182236 
	C262.919434,114.460510 266.742340,115.241524 270.099579,116.950684 
	C274.552246,119.217552 275.100159,124.133598 271.733093,127.324905 
	C267.546448,131.292999 256.714111,130.526581 254.356079,125.393097 
	C252.033463,120.336655 248.860886,120.998756 244.912750,121.678986 
	C246.264252,129.889038 250.216949,133.893036 258.170227,135.441040 
	C267.038971,137.167191 276.413330,134.263336 279.808746,128.694138 
	C280.321777,127.852676 280.722443,126.916618 281.022797,125.975700 
	C283.489655,118.247658 280.307312,112.033707 272.186829,109.130806 
	C267.350494,107.401924 262.245422,106.359810 257.534943,104.363068 
	C253.330765,102.580956 252.585419,97.780060 255.530167,94.980438 
	C258.799225,91.872475 267.342621,91.697411 269.643646,95.516991 
	C272.384796,100.067116 275.745514,99.326942 279.678253,98.867699 
	C276.772705,87.947266 264.883179,83.228096 253.888641,88.328102 
	C244.640137,92.618179 243.157135,102.933403 251.456161,110.136536 
M187.169601,61.608494 
	C187.169601,59.349674 187.169601,57.090855 187.169601,54.728172 
	C184.453735,54.728172 182.357422,54.728172 180.034744,54.728172 
	C180.034744,81.312859 180.034744,107.674103 180.034744,134.206757 
	C182.460281,134.206757 184.689102,134.206757 187.169601,134.206757 
	C187.169601,110.128822 187.169601,86.354172 187.169601,61.608494 
M169.098221,102.505150 
	C169.098221,97.605782 169.098221,92.706413 169.098221,87.820511 
	C166.295532,87.820511 164.197891,87.820511 161.946655,87.820511 
	C161.946655,103.412689 161.946655,118.780525 161.946655,134.201111 
	C164.422012,134.201111 166.654510,134.201111 169.098221,134.201111 
	C169.098221,123.758583 169.098221,113.630775 169.098221,102.505150 
M165.501648,79.436424 
	C169.381149,78.644226 171.203033,76.319412 169.339249,72.676407 
	C168.650604,71.330360 166.025055,70.046417 164.547226,70.296448 
	C163.094849,70.542198 160.739136,73.063606 160.976624,74.065895 
	C161.442657,76.032784 163.434097,77.638229 165.501648,79.436424 
z"/>
<path fill="#0B0B0B" opacity="1.000000" stroke="none" 
	d="
M116.148834,116.004875 
	C116.117737,111.342354 116.330376,107.158752 116.004326,103.017563 
	C115.344460,94.636711 107.883781,91.049240 100.796753,95.658806 
	C95.069366,99.384033 93.361389,105.214775 93.118034,111.618065 
	C92.978935,115.278122 93.091553,118.947762 93.091255,122.613083 
	C93.090958,126.272957 93.091187,129.932831 93.091187,133.925842 
	C90.706108,133.925842 88.474869,133.925842 85.647118,133.925842 
	C85.647118,126.276512 85.647125,118.511459 85.647125,110.746399 
	C85.647125,103.106766 85.647118,95.467125 85.647118,87.547379 
	C88.227295,87.547379 90.454659,87.547379 92.920387,87.547379 
	C93.009506,89.488953 93.092018,91.286766 93.224495,94.173080 
	C97.175552,89.046806 101.663177,86.047340 107.671494,86.225349 
	C113.793373,86.406715 118.408134,89.156120 120.949883,93.536613 
	C125.217682,91.115112 129.033386,87.839569 133.405640,86.700706 
	C142.489273,84.334618 151.049194,90.252777 151.881943,100.086685 
	C152.818954,111.151680 152.097549,122.357109 152.097549,133.881805 
	C150.183380,133.881805 147.805283,133.881805 145.076691,133.881805 
	C145.076691,124.507019 145.119537,115.211731 145.063873,105.917046 
	C145.014420,97.662445 141.990341,93.829315 135.726578,93.872368 
	C129.007172,93.918556 123.798309,99.420464 123.799454,106.466743 
	C123.800903,115.460304 123.799797,124.453865 123.799797,133.853363 
	C121.321426,133.853363 118.956589,133.853363 116.148834,133.853363 
	C116.148834,128.062180 116.148834,122.282585 116.148834,116.004875 
z"/>
<path fill="#0B0B0B" opacity="1.000000" stroke="none" 
	d="
M324.799500,116.008270 
	C324.799500,122.167137 324.799500,127.828537 324.799500,133.874390 
	C322.301300,133.874390 319.927063,133.874390 317.147339,133.874390 
	C317.147339,124.531189 317.179016,115.247337 317.136627,105.963829 
	C317.106323,99.323448 314.908234,95.282112 310.843872,94.135521 
	C305.561859,92.645439 299.563507,95.327972 296.879639,101.184540 
	C295.332367,104.560989 294.424347,108.453690 294.211090,112.170380 
	C293.801758,119.305099 294.091949,126.479950 294.091949,133.948608 
	C291.686646,133.948608 289.448517,133.948608 286.925110,133.948608 
	C286.925110,118.594818 286.925110,103.193298 286.925110,87.526962 
	C289.257904,87.526962 291.489746,87.526962 293.927612,87.526962 
	C294.016815,89.522766 294.097473,91.327034 294.229126,94.272720 
	C298.141785,88.970840 302.697906,86.037651 308.718140,86.237053 
	C314.796143,86.438354 319.482361,89.089241 321.911774,93.544258 
	C326.258484,91.088593 330.078735,87.819214 334.451324,86.691521 
	C343.535492,84.348709 352.061859,90.283371 352.891174,100.132996 
	C353.822876,111.198944 353.105377,122.403755 353.105377,133.905136 
	C351.161682,133.905136 348.771820,133.905136 346.076599,133.905136 
	C346.076599,124.474831 346.121185,115.171906 346.063232,105.869614 
	C346.011871,97.628990 342.967865,93.807442 336.679077,93.872246 
	C329.952911,93.941536 324.795044,99.431335 324.799500,106.514320 
	C324.801392,109.513153 324.799622,112.511986 324.799500,116.008270 
z"/>
<path fill="#0E0E0E" opacity="1.000000" stroke="none" 
	d="
M419.122681,87.564026 
	C421.013580,87.558746 422.479584,87.558746 424.204437,87.558746 
	C424.421692,89.643784 424.604828,91.401054 424.964844,94.856094 
	C430.963898,82.130272 441.147308,88.896164 449.959290,87.271965 
	C449.959290,81.550613 449.959290,75.678062 449.959290,69.528152 
	C452.763763,69.528152 454.996033,69.528152 457.663086,69.528152 
	C457.663086,75.373573 457.663086,81.127884 457.663086,87.361115 
	C461.613251,87.361115 465.173981,87.361115 469.013092,87.361115 
	C469.013092,89.912415 469.013092,91.980515 469.013092,94.523163 
	C465.373779,94.523163 461.802307,94.523163 457.947479,94.523163 
	C457.947479,107.927170 457.947479,120.866791 457.947479,134.179901 
	C455.273743,134.179901 452.900024,134.179901 450.195557,134.179901 
	C450.195557,121.070259 450.195557,108.143768 450.195557,93.986992 
	C446.772461,94.761345 443.874390,95.451637 440.957336,96.049614 
	C440.319397,96.180389 439.578278,96.102806 438.945190,95.916000 
	C433.667328,94.358635 430.069244,95.260353 427.717438,100.179680 
	C425.918304,103.942978 424.927795,108.337700 424.640991,112.524406 
	C424.154755,119.623093 424.507324,126.779251 424.507324,134.233398 
	C421.974518,134.233398 419.746429,134.233398 416.969330,134.233398 
	C416.969330,120.095665 416.918976,106.006615 417.044952,91.919144 
	C417.057983,90.464386 418.121643,89.019020 419.122681,87.564026 
z"/>
<path fill="#0A0A0A" opacity="1.000000" stroke="none" 
	d="
M399.388855,130.951385 
	C399.329224,129.719284 399.270081,128.901535 399.156036,127.324883 
	C393.026855,133.525986 386.269287,136.703506 377.852142,135.232498 
	C372.295410,134.261383 367.980347,131.397736 364.506683,127.133522 
	C356.468414,117.265755 357.120331,102.466789 365.944153,93.306549 
	C374.745300,84.169815 386.194702,84.422585 399.117767,94.271080 
	C399.271393,92.159653 399.409882,90.256638 399.576691,87.964310 
	C401.921265,87.964310 404.278473,87.964310 406.812500,87.964310 
	C406.812500,103.371559 406.812500,118.652824 406.812500,134.533371 
	C404.239014,133.179367 399.879089,137.792786 399.388855,130.951385 
M393.448853,97.987450 
	C386.545898,92.964767 379.147797,92.679169 373.222534,97.206604 
	C367.120117,101.869400 364.795044,110.124825 367.546783,117.358658 
	C370.213562,124.369087 376.909058,128.663620 384.414215,127.970963 
	C390.998535,127.363274 395.589233,123.676437 398.004578,117.722000 
	C400.902954,110.576797 399.458740,104.036255 393.448853,97.987450 
z"/>
<path fill="#080808" opacity="1.000000" stroke="none" 
	d="
M223.000000,113.959076 
	C215.840561,113.959076 209.180939,113.959076 202.499146,113.959076 
	C204.077133,126.249138 219.083954,132.166229 228.873306,124.105202 
	C232.507019,121.113022 235.901184,120.259941 240.152954,121.021927 
	C237.582504,130.894592 224.821762,137.316696 213.130035,134.621170 
	C200.452316,131.698349 192.245560,119.463425 194.468582,106.799995 
	C196.748337,93.813286 208.910522,84.684906 221.593506,86.441238 
	C235.366821,88.348564 244.283768,99.685547 242.803696,113.959076 
	C236.409393,113.959076 229.954605,113.959076 223.000000,113.959076 
M218.500885,107.559090 
	C223.921661,107.559090 229.342453,107.559090 234.855881,107.559090 
	C233.027039,99.035904 226.706375,93.851196 218.615891,93.824692 
	C210.539108,93.798233 204.393372,98.924911 202.592255,107.559044 
	C207.619888,107.559044 212.562561,107.559044 218.500885,107.559090 
z"/>
<path fill="#0A0A0A" opacity="1.000000" stroke="none" 
	d="
M251.130737,109.955551 
	C243.157135,102.933403 244.640137,92.618179 253.888641,88.328102 
	C264.883179,83.228096 276.772705,87.947266 279.678253,98.867699 
	C275.745514,99.326942 272.384796,100.067116 269.643646,95.516991 
	C267.342621,91.697411 258.799225,91.872475 255.530167,94.980438 
	C252.585419,97.780060 253.330765,102.580956 257.534943,104.363068 
	C262.245422,106.359810 267.350494,107.401924 272.186829,109.130806 
	C280.307312,112.033707 283.489655,118.247658 281.022797,125.975700 
	C280.722443,126.916618 280.321777,127.852676 279.808746,128.694138 
	C276.413330,134.263336 267.038971,137.167191 258.170227,135.441040 
	C250.216949,133.893036 246.264252,129.889038 244.912750,121.678986 
	C248.860886,120.998756 252.033463,120.336655 254.356079,125.393097 
	C256.714111,130.526581 267.546448,131.292999 271.733093,127.324905 
	C275.100159,124.133598 274.552246,119.217552 270.099579,116.950684 
	C266.742340,115.241524 262.919434,114.460510 259.333771,113.182236 
	C256.682892,112.237198 254.080276,111.156693 251.130737,109.955551 
z"/>
<path fill="#020202" opacity="1.000000" stroke="none" 
	d="
M187.169601,62.094009 
	C187.169601,86.354172 187.169601,110.128822 187.169601,134.206757 
	C184.689102,134.206757 182.460281,134.206757 180.034744,134.206757 
	C180.034744,107.674103 180.034744,81.312859 180.034744,54.728172 
	C182.357422,54.728172 184.453735,54.728172 187.169601,54.728172 
	C187.169601,57.090855 187.169601,59.349674 187.169601,62.094009 
z"/>
<path fill="#040404" opacity="1.000000" stroke="none" 
	d="
M169.098221,103.004059 
	C169.098221,113.630775 169.098221,123.758583 169.098221,134.201111 
	C166.654510,134.201111 164.422012,134.201111 161.946655,134.201111 
	C161.946655,118.780525 161.946655,103.412689 161.946655,87.820511 
	C164.197891,87.820511 166.295532,87.820511 169.098221,87.820511 
	C169.098221,92.706413 169.098221,97.605782 169.098221,103.004059 
z"/>
<path fill="#0B0B0B" opacity="1.000000" stroke="none" 
	d="
M165.147980,79.414841 
	C163.434097,77.638229 161.442657,76.032784 160.976624,74.065895 
	C160.739136,73.063606 163.094849,70.542198 164.547226,70.296448 
	C166.025055,70.046417 168.650604,71.330360 169.339249,72.676407 
	C171.203033,76.319412 169.381149,78.644226 165.147980,79.414841 
z"/>
<path fill="#FBFBFB" opacity="1.000000" stroke="none" 
	d="
M393.721619,98.235191 
	C399.458740,104.036255 400.902954,110.576797 398.004578,117.722000 
	C395.589233,123.676437 390.998535,127.363274 384.414215,127.970963 
	C376.909058,128.663620 370.213562,124.369087 367.546783,117.358658 
	C364.795044,110.124825 367.120117,101.869400 373.222534,97.206604 
	C379.147797,92.679169 386.545898,92.964767 393.721619,98.235191 
z"/>
<path fill="#EFEFEF" opacity="1.000000" stroke="none" 
	d="
M218.003052,107.559067 
	C212.562561,107.559044 207.619888,107.559044 202.592255,107.559044 
	C204.393372,98.924911 210.539108,93.798233 218.615891,93.824692 
	C226.706375,93.851196 233.027039,99.035904 234.855881,107.559090 
	C229.342453,107.559090 223.921661,107.559090 218.003052,107.559067 
z"/>
</svg>