<svg xmlns="http://www.w3.org/2000/svg" height="24" viewBox="0 -960 960 960" width="24"><path d="M480-274.5q18.524 0 31.056-12.531 12.531-12.531 12.531-31.056 0-18.435-12.531-31.13-12.532-12.696-31.056-12.696t-31.056 12.696q-12.531 12.695-12.531 31.13t12.531 31.011Q461.476-274.5 480-274.5Zm-41.913-158.804h83.826v-251h-83.826v251ZM326.652-111.869 111.869-326.596v-306.752l214.727-214.783h306.752l214.783 214.727v306.752L633.404-111.869H326.652Zm38.534-91.001h229.618L757.13-365.186v-229.618L594.814-757.13H365.196L202.87-594.814v229.618L365.186-202.87ZM480-480Z"/></svg>